<?xml version="1.0" encoding="UTF-8" standalone="no"?>
<!-- Created with Inkscape (http://www.inkscape.org/) -->

<svg
   width="130mm"
   height="80mm"
   viewBox="0 0 130 80"
   version="1.1"
   id="svg3589"
   inkscape:version="1.2.2 (732a01da63, 2022-12-09)"
   sodipodi:docname="GDFLAB_svg.svg"
   xmlns:inkscape="http://www.inkscape.org/namespaces/inkscape"
   xmlns:sodipodi="http://sodipodi.sourceforge.net/DTD/sodipodi-0.dtd"
   xmlns="http://www.w3.org/2000/svg"
   xmlns:svg="http://www.w3.org/2000/svg">
  <sodipodi:namedview
     id="namedview3591"
     pagecolor="#ffffff"
     bordercolor="#000000"
     borderopacity="0.25"
     inkscape:showpageshadow="2"
     inkscape:pageopacity="0.0"
     inkscape:pagecheckerboard="0"
     inkscape:deskcolor="#d1d1d1"
     inkscape:document-units="mm"
     showgrid="false"
     inkscape:zoom="1.4509043"
     inkscape:cx="9.3045418"
     inkscape:cy="202.28763"
     inkscape:window-width="2560"
     inkscape:window-height="1511"
     inkscape:window-x="-9"
     inkscape:window-y="-9"
     inkscape:window-maximized="1"
     inkscape:current-layer="layer1" />
  <defs
     id="defs3586" />
  <g
     inkscape:label="Layer 1"
     inkscape:groupmode="layer"
     id="layer1">
    <g
       id="g180"
       transform="matrix(0.35277777,0,0,-0.35277777,53.199131,21.616637)">
      <path
         d="m 0,0 -14.283,8.102 c -22.52,-10.186 -18.485,-34.793 -3.422,-43.034 L 0,-24.885 Z"
         style="fill:#3d91ce;fill-opacity:1;fill-rule:nonzero;stroke:none"
         id="path182" />
    </g>
    <g
       id="g184"
       transform="matrix(0.35277777,0,0,-0.35277777,69.314443,30.009927)">
      <path
         d="m 0,0 c 2.173,3.507 3.099,7.53 3.099,11.81 0,3.775 -1.329,7.349 -3.701,10.545 L -19.995,11.347 Z"
         style="fill:#6ecfe6;fill-opacity:1;fill-rule:nonzero;stroke:none"
         id="path186" />
    </g>
    <g
       id="g188"
       transform="matrix(0.35277777,0,0,-0.35277777,53.853005,21.236487)">
      <path
         d="m 0,0 21.952,-12.456 20.089,11.4 C 35.478,6.446 22.962,11.517 8.596,11.517 5.535,11.517 2.676,11.367 0,11.088 Z"
         style="fill:#3d91ce;fill-opacity:1;fill-rule:nonzero;stroke:none"
         id="path190" />
    </g>
    <g
       id="g192"
       transform="matrix(0.35277777,0,0,-0.35277777,48.927381,18.441467)">
      <path
         d="M 0,0 12.109,-6.871 V 2.944 C 7.486,2.341 3.465,1.329 0,0"
         style="fill:#6ecfe6;fill-opacity:1;fill-rule:nonzero;stroke:none"
         id="path194" />
    </g>
    <g
       id="g196"
       transform="matrix(0.35277777,0,0,-0.35277777,61.597077,26.383087)">
      <path
         d="m 0,0 -21.952,-12.456 v -12.549 c 1.939,1.163 4.634,1.96 8.596,1.96 18.527,0 29.002,4.474 34.166,11.234 z"
         style="fill:#3d91ce;fill-opacity:1;fill-rule:nonzero;stroke:none"
         id="path198" />
    </g>
    <g
       id="g200"
       transform="matrix(0.35277777,0,0,-0.35277777,53.199131,31.148337)">
      <path
         d="m 0,0 -15.673,-8.895 c 0.555,-0.234 1.122,-0.453 1.7,-0.642 3.218,-1.06 3.242,-11.13 7.061,-11.13 3.37,0 3.481,4.485 6.912,7.763 z"
         style="fill:#6ecfe6;fill-opacity:1;fill-rule:nonzero;stroke:none"
         id="path202" />
    </g>
    <g
       id="g204"
       transform="matrix(0.35277777,0,0,-0.35277777,72.654787,39.421577)">
      <path
         d="m 0,0 h 0.035 c 0.637,0 0.958,-0.392 0.958,-1.179 v -49.324 h 30.315 c 0.837,0 1.254,-0.319 1.254,-0.956 v -0.038 c 0,-0.342 -0.116,-0.608 -0.351,-0.793 -0.233,-0.184 -0.534,-0.275 -0.903,-0.275 H 0 c -0.666,0 -0.998,0.341 -0.998,1.033 V -1.179 C -0.998,-0.392 -0.666,0 0,0"
         style="fill:#6ecfe6;fill-opacity:1;fill-rule:nonzero;stroke:none"
         id="path206" />
    </g>
    <g
       id="g208"
       transform="matrix(0.35277777,0,0,-0.35277777,98.763273,51.974827)">
      <path
         d="M 0,0 -13.445,32.197 -26.965,0 Z m -13.555,35.549 h 0.184 c 0.146,0 0.308,-0.056 0.479,-0.167 0.17,-0.112 0.32,-0.312 0.443,-0.608 L 8.656,-15.507 c 0.075,-0.173 0.113,-0.334 0.113,-0.48 0,-0.268 -0.113,-0.503 -0.334,-0.699 -0.219,-0.199 -0.455,-0.295 -0.7,-0.295 h -0.11 c -0.343,0 -0.614,0.234 -0.812,0.699 L 0.847,-2.025 H -27.81 l -5.97,-14.219 c -0.195,-0.491 -0.453,-0.737 -0.772,-0.737 h -0.111 c -0.295,0 -0.541,0.078 -0.737,0.239 -0.196,0.159 -0.295,0.387 -0.295,0.683 0,0.196 0.037,0.379 0.11,0.552 l 21.147,50.281 c 0.194,0.468 0.49,0.725 0.883,0.775"
         style="fill:#6ecfe6;fill-opacity:1;fill-rule:nonzero;stroke:none"
         id="path210" />
    </g>
    <g
       id="g212"
       transform="matrix(0.35277777,0,0,-0.35277777,104.81476,57.250647)">
      <path
         d="m 0,0 h 23.245 c 2.453,0 4.509,0.65 6.168,1.952 1.657,1.301 2.886,2.855 3.684,4.662 0.799,1.804 1.197,3.465 1.197,4.989 0,2.406 -0.614,4.568 -1.842,6.484 -1.228,1.916 -2.738,3.408 -4.53,4.475 -1.794,1.07 -3.499,1.603 -5.122,1.603 H 0 Z m 0,26.191 h 20.151 c 2.083,0 4.011,0.485 5.782,1.455 1.769,0.969 3.173,2.295 4.217,3.979 1.043,1.682 1.565,3.566 1.565,5.654 0,2.061 -0.522,3.954 -1.565,5.673 -1.044,1.717 -2.448,3.074 -4.217,4.071 -1.771,0.995 -3.699,1.493 -5.782,1.493 H 0 Z m -0.996,24.348 h 21.147 c 2.453,0 4.713,-0.582 6.775,-1.749 2.063,-1.167 3.704,-2.758 4.92,-4.77 1.213,-2.016 1.822,-4.25 1.822,-6.704 0,-2.578 -0.663,-4.874 -1.989,-6.89 -1.328,-2.013 -3.12,-3.609 -5.377,-4.787 1.842,-0.542 3.523,-1.524 5.047,-2.949 1.521,-1.424 2.726,-3.106 3.609,-5.044 0.883,-1.943 1.324,-3.932 1.324,-5.97 0,-2.357 -0.587,-4.573 -1.765,-6.648 C 33.338,2.951 31.741,1.282 29.727,0.018 27.713,-1.248 25.526,-1.93 23.169,-2.026 H -0.996 c -0.662,0 -0.992,0.341 -0.992,1.033 v 50.537 c 0,0.664 0.33,0.995 0.992,0.995"
         style="fill:#6ecfe6;fill-opacity:1;fill-rule:nonzero;stroke:none"
         id="path214" />
    </g>
    <g
       id="g216"
       transform="matrix(0.35277777,0,0,-0.35277777,32.263111,49.842987)">
      <path
         d="m 0,0 c 0,-6.508 -2.303,-12.078 -6.911,-16.711 -4.607,-4.634 -10.243,-6.949 -16.905,-6.949 -7.497,0 -13.692,2.705 -18.585,8.121 -4.372,4.842 -6.56,11.139 -6.56,18.897 0,8.069 2.46,14.602 7.379,19.6 4.919,4.999 11.335,7.497 19.249,7.497 5.31,0 9.943,-1.328 13.899,-3.983 2.395,-1.614 4.893,-4.139 7.497,-7.575 l -8.199,-5.622 c -3.436,4.736 -7.914,7.106 -13.431,7.106 -5.05,0 -9.058,-1.549 -12.026,-4.646 -2.966,-3.097 -4.451,-7.301 -4.451,-12.611 0,-4.946 1.393,-8.968 4.179,-12.064 2.783,-3.099 6.467,-4.647 11.049,-4.647 4.58,0 8.172,1.612 10.775,4.841 1.041,1.197 1.901,2.707 2.578,4.529 H -22.177 V 5.936 H 0 Z"
         style="fill:#3d91ce;fill-opacity:1;fill-rule:nonzero;stroke:none"
         id="path218" />
    </g>
    <g
       id="g220"
       transform="matrix(0.35277777,0,0,-0.35277777,48.185665,48.603117)">
      <path
         d="m 0,0 c 0,4.424 -1.576,8.225 -4.724,11.401 -3.151,3.174 -6.963,4.764 -11.44,4.764 h -13.04 v -32.486 h 13.04 c 4.477,0 8.289,1.588 11.44,4.763 C -1.576,-8.383 0,-4.529 0,0 m 10.074,0 c 0,-7.237 -2.565,-13.42 -7.693,-18.546 -5.128,-5.128 -11.31,-7.692 -18.545,-7.692 h -22.958 v 52.32 h 22.958 c 7.235,0 13.417,-2.553 18.545,-7.654 C 7.509,13.326 10.074,7.184 10.074,0"
         style="fill:#3d91ce;fill-opacity:1;fill-rule:nonzero;stroke:none"
         id="path222" />
    </g>
    <g
       id="g224"
       transform="matrix(0.35277777,0,0,-0.35277777,68.934608,42.900607)">
      <path
         d="m 0,0 h -32.484 v -9.528 h 23.375 v -10.151 h -23.375 v -22.723 h -9.918 V 9.917 H 0 Z"
         style="fill:#3d91ce;fill-opacity:1;fill-rule:nonzero;stroke:none"
         id="path226" />
    </g>
  </g>
</svg>
