<?xml version="1.0" encoding="UTF-8" standalone="no"?>
<!-- Created with Inkscape (http://www.inkscape.org/) -->

<svg
   width="130mm"
   height="80mm"
   viewBox="0 0 130 80"
   version="1.1"
   id="svg3589"
   inkscape:version="1.2.2 (732a01da63, 2022-12-09)"
   sodipodi:docname="GDFPLAY_svg.svg"
   xmlns:inkscape="http://www.inkscape.org/namespaces/inkscape"
   xmlns:sodipodi="http://sodipodi.sourceforge.net/DTD/sodipodi-0.dtd"
   xmlns="http://www.w3.org/2000/svg"
   xmlns:svg="http://www.w3.org/2000/svg">
  <sodipodi:namedview
     id="namedview3591"
     pagecolor="#ffffff"
     bordercolor="#000000"
     borderopacity="0.25"
     inkscape:showpageshadow="2"
     inkscape:pageopacity="0.0"
     inkscape:pagecheckerboard="0"
     inkscape:deskcolor="#d1d1d1"
     inkscape:document-units="mm"
     showgrid="false"
     inkscape:zoom="1.4509043"
     inkscape:cx="194.01693"
     inkscape:cy="164.38024"
     inkscape:window-width="2560"
     inkscape:window-height="1511"
     inkscape:window-x="-9"
     inkscape:window-y="-9"
     inkscape:window-maximized="1"
     inkscape:current-layer="layer1" />
  <defs
     id="defs3586" />
  <g
     inkscape:label="Layer 1"
     inkscape:groupmode="layer"
     id="layer1">
    <g
       id="g2590"
       transform="matrix(0.35277777,0,0,-0.35277777,47.601987,22.937403)">
      <path
         d="M 0,0 -14.705,8.342 C -37.889,-2.146 -33.734,-27.479 -18.227,-35.962 L 0,-25.618 Z"
         style="fill:#3d91ce;fill-opacity:1;fill-rule:nonzero;stroke:none"
         id="path2592" />
    </g>
    <g
       id="g2594"
       transform="matrix(0.35277777,0,0,-0.35277777,64.192526,31.578059)">
      <path
         d="m 0,0 c 2.236,3.61 3.191,7.752 3.191,12.158 0,3.886 -1.369,7.566 -3.811,10.856 L -20.584,11.681 Z"
         style="fill:#6ecfe6;fill-opacity:1;fill-rule:nonzero;stroke:none"
         id="path2596" />
    </g>
    <g
       id="g2598"
       transform="matrix(0.35277777,0,0,-0.35277777,48.275158,22.546031)">
      <path
         d="M 0,0 22.598,-12.823 43.281,-1.087 C 36.524,6.636 23.639,11.855 8.849,11.855 5.697,11.855 2.754,11.702 0,11.415 Z"
         style="fill:#3d91ce;fill-opacity:1;fill-rule:nonzero;stroke:none"
         id="path2600" />
    </g>
    <g
       id="g2602"
       transform="matrix(0.35277777,0,0,-0.35277777,43.20433,19.668705)">
      <path
         d="M 0,0 12.466,-7.073 V 3.03 C 7.708,2.41 3.568,1.367 0,0"
         style="fill:#6ecfe6;fill-opacity:1;fill-rule:nonzero;stroke:none"
         id="path2604" />
    </g>
    <g
       id="g2606"
       transform="matrix(0.35277777,0,0,-0.35277777,56.247265,27.844612)">
      <path
         d="m 0,0 -22.598,-12.822 v -12.92 c 1.995,1.197 4.77,2.018 8.849,2.018 19.073,0 29.857,4.607 35.173,11.565 z"
         style="fill:#3d91ce;fill-opacity:1;fill-rule:nonzero;stroke:none"
         id="path2608" />
    </g>
    <g
       id="g2610"
       transform="matrix(0.35277777,0,0,-0.35277777,47.601987,32.75041)">
      <path
         d="m 0,0 -16.135,-9.156 c 0.572,-0.24 1.156,-0.467 1.75,-0.661 3.313,-1.092 3.338,-11.459 7.269,-11.459 3.47,0 3.584,4.618 7.116,7.992 z"
         style="fill:#6ecfe6;fill-opacity:1;fill-rule:nonzero;stroke:none"
         id="path2612" />
    </g>
    <g
       id="g2614"
       transform="matrix(0.35277777,0,0,-0.35277777,26.048783,51.996096)">
      <path
         d="m 0,0 c 0,-6.699 -2.372,-12.435 -7.115,-17.203 -4.742,-4.772 -10.544,-7.154 -17.404,-7.154 -7.717,0 -14.095,2.785 -19.132,8.361 -4.502,4.983 -6.754,11.467 -6.754,19.453 0,8.308 2.532,15.033 7.597,20.178 5.065,5.146 11.669,7.718 19.816,7.718 5.467,0 10.236,-1.367 14.31,-4.1 2.465,-1.662 5.036,-4.261 7.717,-7.798 l -8.441,-5.788 c -3.537,4.876 -8.147,7.316 -13.827,7.316 -5.199,0 -9.325,-1.595 -12.381,-4.784 -3.053,-3.188 -4.581,-7.517 -4.581,-12.983 0,-5.091 1.433,-9.233 4.301,-12.42 2.866,-3.189 6.659,-4.783 11.375,-4.783 4.715,0 8.414,1.659 11.094,4.984 1.071,1.232 1.956,2.786 2.653,4.662 H -22.831 V 6.111 H 0 Z"
         style="fill:#3d91ce;fill-opacity:1;fill-rule:nonzero;stroke:none"
         id="path2616" />
    </g>
    <g
       id="g2618"
       transform="matrix(0.35277777,0,0,-0.35277777,42.440531,50.719675)">
      <path
         d="m 0,0 c 0,4.554 -1.622,8.468 -4.863,11.737 -3.243,3.268 -7.168,4.905 -11.777,4.905 h -13.425 v -33.444 h 13.425 c 4.609,0 8.534,1.636 11.777,4.904 C -1.622,-8.63 0,-4.662 0,0 m 10.372,0 c 0,-7.45 -2.641,-13.814 -7.92,-19.094 -5.279,-5.278 -11.644,-7.917 -19.092,-7.917 h -23.635 v 53.862 h 23.635 c 7.448,0 13.813,-2.627 19.092,-7.878 C 7.731,13.718 10.372,7.396 10.372,0"
         style="fill:#3d91ce;fill-opacity:1;fill-rule:nonzero;stroke:none"
         id="path2620" />
    </g>
    <g
       id="g2622"
       transform="matrix(0.35277777,0,0,-0.35277777,63.801507,44.848889)">
      <path
         d="M 0,0 H -33.442 V -9.809 H -9.378 V -20.26 h -24.064 v -23.392 h -10.21 V 10.209 H 0 Z"
         style="fill:#3d91ce;fill-opacity:1;fill-rule:nonzero;stroke:none"
         id="path2624" />
    </g>
    <g
       id="g2626"
       transform="matrix(0.35277777,0,0,-0.35277777,68.058971,52.316136)">
      <path
         d="m 0,0 h 16.597 c 2.697,0 5.167,0.646 7.411,1.947 2.243,1.295 4.008,3.06 5.293,5.294 1.284,2.229 1.927,4.681 1.927,7.353 0,2.696 -0.643,5.171 -1.927,7.427 -1.285,2.254 -3.05,4.041 -5.293,5.349 -2.244,1.31 -4.714,1.969 -7.411,1.969 L 0,29.339 Z m -1.021,31.415 h 17.618 c 3.024,0 5.822,-0.756 8.394,-2.268 2.57,-1.51 4.613,-3.552 6.124,-6.123 1.512,-2.573 2.269,-5.381 2.269,-8.43 0,-3.027 -0.751,-5.82 -2.25,-8.374 -1.5,-2.558 -3.535,-4.59 -6.105,-6.09 -2.573,-1.5 -5.383,-2.247 -8.432,-2.247 L 0,-2.117 v -19.209 c 0,-0.807 -0.328,-1.207 -0.981,-1.207 h -0.04 c -0.682,0 -1.02,0.4 -1.02,1.207 v 51.722 c 0,0.679 0.338,1.019 1.02,1.019"
         style="fill:#6ecfe6;fill-opacity:1;fill-rule:nonzero;stroke:none"
         id="path2628" />
    </g>
    <g
       id="g2630"
       transform="matrix(0.35277777,0,0,-0.35277777,83.597032,41.233622)">
      <path
         d="m 0,0 h 0.038 c 0.655,0 0.983,-0.4 0.983,-1.208 v -50.623 h 31.115 c 0.857,0 1.286,-0.33 1.286,-0.984 v -0.038 c 0,-0.353 -0.121,-0.623 -0.359,-0.813 -0.241,-0.188 -0.55,-0.282 -0.927,-0.282 H 0 c -0.68,0 -1.02,0.351 -1.02,1.059 V -1.208 C -1.02,-0.4 -0.68,0 0,0"
         style="fill:#6ecfe6;fill-opacity:1;fill-rule:nonzero;stroke:none"
         id="path2632" />
    </g>
    <g
       id="g2634"
       transform="matrix(0.35277777,0,0,-0.35277777,109.44541,54.117243)">
      <path
         d="M 0,0 -13.802,33.046 -27.676,0 Z m -13.914,36.483 h 0.188 c 0.151,0 0.315,-0.054 0.493,-0.17 0.175,-0.113 0.327,-0.32 0.452,-0.623 L 8.884,-15.916 c 0.074,-0.175 0.113,-0.341 0.113,-0.491 0,-0.279 -0.113,-0.52 -0.34,-0.718 -0.228,-0.201 -0.468,-0.303 -0.718,-0.303 H 7.825 c -0.354,0 -0.631,0.241 -0.832,0.718 L 0.87,-2.078 h -29.416 l -6.125,-14.594 c -0.202,-0.506 -0.467,-0.756 -0.793,-0.756 h -0.114 c -0.303,0 -0.554,0.08 -0.756,0.245 -0.202,0.164 -0.303,0.399 -0.303,0.698 0,0.203 0.037,0.394 0.113,0.569 l 21.702,51.606 c 0.2,0.479 0.504,0.745 0.908,0.793"
         style="fill:#6ecfe6;fill-opacity:1;fill-rule:nonzero;stroke:none"
         id="path2636" />
    </g>
    <g
       id="g2638"
       transform="matrix(0.35277777,0,0,-0.35277777,118.15408,59.812346)">
      <path
         d="m 0,0 c 0,-0.857 -0.34,-1.284 -1.021,-1.284 h -0.038 c -0.352,0 -0.611,0.118 -0.774,0.357 -0.165,0.24 -0.246,0.549 -0.246,0.927 v 23.288 l -17.77,27.79 c -0.126,0.201 -0.188,0.403 -0.188,0.606 0,0.277 0.096,0.509 0.284,0.697 0.19,0.191 0.396,0.283 0.623,0.283 h 0.115 0.074 c 0.253,0 0.515,-0.186 0.795,-0.564 L -1.059,25.406 16.068,52.062 c 0.177,0.277 0.334,0.448 0.473,0.51 0.138,0.061 0.271,0.092 0.396,0.092 h 0.115 c 0.227,0 0.433,-0.101 0.623,-0.3 0.19,-0.202 0.283,-0.441 0.283,-0.718 0,-0.202 -0.062,-0.404 -0.188,-0.606 L 0,23.288 Z"
         style="fill:#6ecfe6;fill-opacity:1;fill-rule:nonzero;stroke:none"
         id="path2640" />
    </g>
  </g>
</svg>
